# xmcd
#
# Track frame offsets:
#	150
#	19350
#	36675
#	52800
#	75300
#	95700
#	114000
#	129600
#	145275
#	162375
#	177375
#	193350
#	209925
#	224400
#	242100
#	258825
#	276750
#
# Disc length: 3962 seconds
#
# Revision: 0
# Processed by: cddbd v1.5.1PL0 Copyright (c) Steve Scherf et al.
# Submitted via: audiograbber 1.83.01
#
DISCID=080f7811
DTITLE=various artist - Love Story. (2004)
DYEAR=1900
DGENRE=
TTITLE0=Santana feat. Michelle Branch. - The Game Of Love. (Radio Mix)
TTITLE1=Gareth Gates. - Anyone Of Us. (Stupid Mistake)
TTITLE2=No Angels. - Still In Love With You.
TTITLE3=Pink. - Family Portrait.
TTITLE4=Five. - Closer To Me. (Single Rmx)
TTITLE5=Ray Vega. - The Best Of Goodbye.
TTITLE6=Will Young. - Light My Fire.
TTITLE7=Sarah Whatmore. - When I Lost You. (Radio Version)
TTITLE8=ATC. - Thinking Of You.
TTITLE9=O-Town. - Love Should Be A Crime.
TTITLE10=Liberty X. - Holding On Fot You.
TTITLE11=Zoe Birkett. - Treat Me Like A Lady.
TTITLE12=Natural. - Put Your Arms Arround Me. (Original Mix)
TTITLE13=Natalie Imbruglia. - Beauty On The Fire. (Radio Mix)
TTITLE14=Lou Bega. - Lonely.
TTITLE15=Sandrine Francois. - After The Rain.
TTITLE16=Westlife. - Unbreakable. (Single Rmx)
EXTD=
EXTT0=
EXTT1=
EXTT2=
EXTT3=
EXTT4=
EXTT5=
EXTT6=
EXTT7=
EXTT8=
EXTT9=
EXTT10=
EXTT11=
EXTT12=
EXTT13=
EXTT14=
EXTT15=
EXTT16=
PLAYORDER=
